<svg width="15" height="15" viewBox="0 0 15 15" fill="none" xmlns="http://www.w3.org/2000/svg">
<g clip-path="url(#clip0_277_82)">
<path d="M7.44336 7.68945C7.30529 7.68945 7.19336 7.57752 7.19336 7.43945C7.19336 7.30138 7.30529 7.18945 7.44336 7.18945" stroke="white" stroke-linecap="round" stroke-linejoin="round"/>
<path d="M7.44336 7.68945C7.58143 7.68945 7.69336 7.57752 7.69336 7.43945C7.69336 7.30138 7.58143 7.18945 7.44336 7.18945" stroke="white" stroke-linecap="round" stroke-linejoin="round"/>
<path d="M4.69336 7.68945C4.55529 7.68945 4.44336 7.57752 4.44336 7.43945C4.44336 7.30138 4.55529 7.18945 4.69336 7.18945" stroke="white" stroke-linecap="round" stroke-linejoin="round"/>
<path d="M4.69336 7.68945C4.83143 7.68945 4.94336 7.57752 4.94336 7.43945C4.94336 7.30138 4.83143 7.18945 4.69336 7.18945" stroke="white" stroke-linecap="round" stroke-linejoin="round"/>
<path d="M10.1934 7.68945C10.0553 7.68945 9.94336 7.57752 9.94336 7.43945C9.94336 7.30138 10.0553 7.18945 10.1934 7.18945" stroke="white" stroke-linecap="round" stroke-linejoin="round"/>
<path d="M10.1934 7.68945C10.3314 7.68945 10.4434 7.57752 10.4434 7.43945C10.4434 7.30138 10.3314 7.18945 10.1934 7.18945" stroke="white" stroke-linecap="round" stroke-linejoin="round"/>
<path d="M7.43956 1C6.27474 1.00036 5.13182 1.31667 4.13254 1.91522C3.13327 2.51378 2.31506 3.37217 1.76506 4.39897C1.21505 5.42577 0.953864 6.58253 1.0093 7.74603C1.06474 8.90954 1.43473 10.0362 2.07987 11.0061L1 13.8792L4.61606 13.2253C5.4868 13.6508 6.44234 13.8743 7.41147 13.8791C8.3806 13.8839 9.33831 13.6699 10.2132 13.253C11.0881 12.8362 11.8577 12.2272 12.4644 11.4715C13.0712 10.7159 13.4997 9.83295 13.7177 8.88866C13.9358 7.94438 13.938 6.96305 13.724 6.01783C13.51 5.0726 13.0855 4.18786 12.482 3.42956C11.8785 2.67125 11.1116 2.05895 10.2385 1.63828C9.36547 1.21761 8.4087 0.999429 7.43956 1Z" stroke="white" stroke-linecap="round" stroke-linejoin="round"/>
</g>
<defs>
<clipPath id="clip0_277_82">
<rect width="14.8829" height="14.8792" fill="white"/>
</clipPath>
</defs>
</svg>
