<svg width="26" height="25" viewBox="0 0 26 25" fill="none" xmlns="http://www.w3.org/2000/svg">
<mask id="mask0_151_12" style="mask-type:luminance" maskUnits="userSpaceOnUse" x="0" y="0" width="26" height="25">
<path d="M25.3491 0H0.5V25H25.3491V0Z" fill="white"/>
</mask>
<g mask="url(#mask0_151_12)">
<path d="M25.3492 12.787C25.3492 11.9373 25.2793 11.083 25.1302 10.2471H13.1738V15.0606H20.0207C19.7365 16.6131 18.8237 17.9864 17.4869 18.859V21.9823H21.5717C23.9705 19.8052 25.3492 16.5901 25.3492 12.787Z" fill="#4285F4"/>
<path d="M13.1738 25C16.5926 25 19.4758 23.893 21.5763 21.9823L17.4916 18.859C16.3551 19.6215 14.8879 20.0533 13.1785 20.0533C9.87149 20.0533 7.06753 17.8531 6.06146 14.8953H1.84619V18.1149C3.99808 22.3361 8.38102 25 13.1738 25Z" fill="#34A853"/>
<path d="M6.05658 14.8952C5.52559 13.3428 5.52559 11.6617 6.05658 10.1093V6.88953H1.84598C0.0480858 10.4216 0.0480858 14.5829 1.84598 18.1149L6.05658 14.8952Z" fill="#FBBC04"/>
<path d="M13.1738 4.94646C14.981 4.91891 16.7277 5.58948 18.0365 6.82044L21.6556 3.25162C19.364 1.12964 16.3225 -0.0370007 13.1738 -0.000256276C8.381 -0.000256276 3.99808 2.66372 1.84619 6.88933L6.05679 10.1091C7.0582 7.14653 9.86683 4.94646 13.1738 4.94646Z" fill="#EA4335"/>
</g>
</svg>
