<svg width="20" height="21" viewBox="0 0 20 21" fill="none" xmlns="http://www.w3.org/2000/svg">
<mask id="mask0_151_223" style="mask-type:luminance" maskUnits="userSpaceOnUse" x="0" y="0" width="20" height="21">
<path d="M19.8793 0.5H0V20.5H19.8793V0.5Z" fill="white"/>
</mask>
<g mask="url(#mask0_151_223)">
<path d="M19.8792 10.7296C19.8792 10.0498 19.8233 9.36638 19.704 8.69763H10.1389V12.5485H15.6164C15.3891 13.7904 14.6588 14.8891 13.5894 15.5872V18.0858H16.8573C18.7763 16.3441 19.8792 13.772 19.8792 10.7296Z" fill="#4285F4"/>
<path d="M10.139 20.5C12.874 20.5 15.1806 19.6145 16.861 18.0859L13.5932 15.5873C12.684 16.1973 11.5103 16.5427 10.1427 16.5427C7.49715 16.5427 5.25398 14.7825 4.44912 12.4163H1.0769V14.992C2.79841 18.3689 6.30477 20.5 10.139 20.5Z" fill="#34A853"/>
<path d="M4.44526 12.4162C4.02047 11.1742 4.02047 9.82935 4.44526 8.58739V6.0116H1.07678C-0.361531 8.83725 -0.361531 12.1663 1.07678 14.9919L4.44526 12.4162Z" fill="#FBBC04"/>
<path d="M10.139 4.45719C11.5848 4.43515 12.9821 4.97161 14.0292 5.95637L16.9244 3.10132C15.0912 1.40373 12.6579 0.470424 10.139 0.499819C6.30475 0.499819 2.79841 2.631 1.0769 6.01149L4.44539 8.58728C5.24651 6.21725 7.49341 4.45719 10.139 4.45719Z" fill="#EA4335"/>
</g>
</svg>
